<svg height="512pt" viewBox="0 -26 512 512" width="512pt" xmlns="http://www.w3.org/2000/svg"><path d="m296 160c0-5.523438-4.476562-10-10-10h-60c-5.523438 0-10 4.476562-10 10s4.476562 10 10 10h60c5.523438 0 10-4.476562 10-10zm0 0"/><path d="m176 280c-16.542969 0-30 13.457031-30 30s13.457031 30 30 30 30-13.457031 30-30-13.457031-30-30-30zm0 40c-5.515625 0-10-4.484375-10-10s4.484375-10 10-10 10 4.484375 10 10-4.484375 10-10 10zm0 0"/><path d="m336 280c-16.542969 0-30 13.457031-30 30s13.457031 30 30 30 30-13.457031 30-30-13.457031-30-30-30zm0 40c-5.515625 0-10-4.484375-10-10s4.484375-10 10-10 10 4.484375 10 10-4.484375 10-10 10zm0 0"/><path d="m502 440c-9.332031 0-17.910156-4.335938-26.988281-8.925781-10.273438-5.191407-21.914063-11.074219-36.011719-11.074219s-25.738281 5.882812-36.007812 11.070312c-5.757813 2.910157-11.308594 5.710938-16.976563 7.375.855469-47.363281 41.910156-139.921874 58.929687-173.972656 1.292969-2.59375 1.402344-5.621094.292969-8.300781-1.109375-2.675781-3.328125-4.742187-6.078125-5.660156l-57.8125-19.269531-25.527344-133.125c-.902343-4.710938-5.023437-8.117188-9.820312-8.117188h-50v-80c0-5.523438-4.476562-10-10-10h-60c-5.523438 0-10 4.476562-10 10v80h-50c-4.796875 0-8.917969 3.40625-9.820312 8.117188l-25.527344 133.125-57.8125 19.269531c-2.75.917969-4.96875 2.980469-6.078125 5.660156s-1 5.707031.292969 8.300781c17.023437 34.042969 58.082031 126.59375 58.929687 173.972656-5.667969-1.664062-11.21875-4.464843-16.976563-7.375-10.269531-5.1875-21.910156-11.070312-36.007812-11.070312s-25.738281 5.882812-36.011719 11.074219c-9.078125 4.589843-17.65625 8.925781-26.988281 8.925781-5.523438 0-10 4.476562-10 10s4.476562 10 10 10c14.097656 0 25.738281-5.882812 36.011719-11.074219 9.078125-4.589843 17.65625-8.925781 26.988281-8.925781s17.90625 4.332031 26.984375 8.921875c28.097656 14.199219 42.417969 15.382813 70.8125-.148437 8.609375-4.707032 16.042969-8.773438 25.203125-8.773438s16.59375 4.066406 25.203125 8.773438c9.621094 5.261718 20.527344 11.226562 34.796875 11.226562s25.175781-5.964844 34.796875-11.226562c8.609375-4.707032 16.042969-8.773438 25.203125-8.773438s16.59375 4.066406 25.203125 8.773438c27.015625 14.777343 41.210937 15.105468 70.8125.148437 9.078125-4.589844 17.652344-8.921875 26.984375-8.921875s17.910156 4.335938 26.988281 8.925781c10.273438 5.191407 21.914063 11.074219 36.011719 11.074219 5.523438 0 10-4.476562 10-10s-4.476562-10-10-10zm-226-420v20h-40v-20zm-40 40h40v30h-40zm-61.734375 50h163.46875l21.859375 113.988281-100.429688-33.476562c-.023437-.007813-.050781-.011719-.074218-.019531-1.960938-.636719-4.144532-.660157-6.179688 0-.023437.007812-.050781.011718-.074218.019531l-100.429688 33.476562zm141.734375 310c-14.269531 0-25.175781 5.964844-34.796875 11.226562-5.289063 2.890626-10.132813 5.535157-15.203125 7.148438v-63.375c0-5.523438-4.476562-10-10-10s-10 4.476562-10 10v63.375c-5.070312-1.613281-9.914062-4.257812-15.203125-7.148438-9.621094-5.261718-20.527344-11.226562-34.796875-11.226562s-25.175781 5.964844-34.796875 11.226562c-5.308594 2.902344-10.167969 5.554688-15.261719 7.167969-1-52.46875-41.449218-142.003906-55.96875-172.511719 18.5625-6.1875 142.976563-47.660156 156.027344-52.007812v71.125c0 5.523438 4.476562 10 10 10s10-4.476562 10-10v-71.125c11.8125 3.9375 137.976562 45.992188 156.027344 52.007812-14.515625 30.507813-54.964844 120.042969-55.96875 172.511719-5.089844-1.613281-9.953125-4.265625-15.257813-7.167969-9.625-5.261718-20.53125-11.226562-34.800781-11.226562zm0 0"/><path d="m266 330c0 5.523438-4.476562 10-10 10s-10-4.476562-10-10 4.476562-10 10-10 10 4.476562 10 10zm0 0"/></svg>