<?xml version="1.0" encoding="utf-8"?>
<!-- Generator: Adobe Illustrator 24.1.1, SVG Export Plug-In . SVG Version: 6.00 Build 0)  -->
<svg version="1.1" id="Capa_1" xmlns="http://www.w3.org/2000/svg" xmlns:xlink="http://www.w3.org/1999/xlink" x="0px" y="0px"
	 viewBox="0 0 507 440" style="enable-background:new 0 0 507 440;" xml:space="preserve">
<style type="text/css">
	.st0{display:none;}
	.st1{display:inline;fill:#0D1857;}
	.st2{display:inline;}
	.st3{fill:#499DD1;}
	.st4{fill:#0D1858;}
	.st5{fill:#FFB3A5;}
	.st6{fill:#FFFFFF;}
	.st7{fill:#FFB1A5;}
	.st8{fill:#0C1859;}
	.st9{fill:#F04C50;}
	.st10{fill:#EF4C4F;}
	.st11{fill:#10052C;}
	.st12{fill:#330F79;}
	.st13{fill:#1A0941;}
	.st14{fill:#40219E;}
	.st15{fill:#2D0C69;}
</style>
<g id="XMLID_419_" class="st0">
	<path id="XMLID_1_" class="st1" d="M204.72,419.01L18.3,311.38c-7.61-4.4-7.63-15.38-0.03-19.8l247.82-144.15l233.45,134.78
		l-235,136.7C246.06,429.66,223.23,429.7,204.72,419.01z"/>
	<g id="XMLID_7734_" class="st2">
		<g id="XMLID_7769_">
			<path id="XMLID_7774_" class="st3" d="M502.03,265.04c0-0.11,0.01-0.22,0-0.33v-6.77h-4.4c-0.3-0.21-0.6-0.41-0.94-0.61
				L315.67,152.81c-7.93-4.58-21.79-4.01-30.94,1.28L53.52,288.51c-1.64,0.95-3.01,1.98-4.12,3.07h-3.45v15.73
				c0.07,2.84,1.83,5.54,5.34,7.57l181.02,104.51c7.93,4.58,21.78,4.01,30.94-1.28l231.21-134.41c4.84-2.79,7.37-6.34,7.54-9.75
				l0.02-4.24V265.04z"/>
			<path id="XMLID_7773_" class="st4" d="M502.01,273.88l0.02-4.24v-4.66c0-0.11,0.01-0.22,0-0.33v-6.77h-4.4
				c-0.3-0.21-0.6-0.41-0.94-0.61l-67.15-38.77c-5.11,0.12-8.82,0.41-10.38,0.92c-9.55,3.17-163.44,92.64-166.55,106.22
				c-3.11,13.58-8.87,81.59-8.87,81.59v15.11c6.65,0.37,13.94-1.08,19.51-4.29l231.21-134.41
				C499.31,280.84,501.85,277.29,502.01,273.88z"/>
			<path id="XMLID_7770_" class="st4" d="M245.76,424.04c-5.33,0-10.42-1.08-14.23-3.27L50.5,316.26c-3.87-2.23-6.05-5.4-6.14-8.91
				v-17.36h4.41c1.14-1.03,2.46-1.99,3.95-2.86l231.21-134.41c9.58-5.53,24.17-6.11,32.54-1.28l181.02,104.51
				c0.22,0.12,0.42,0.26,0.63,0.39h5.5l-0.02,17.61c-0.2,4.21-3.16,8.13-8.34,11.12L264.06,419.49
				C258.84,422.5,252.13,424.04,245.76,424.04z M47.55,293.17v14.13c0.06,2.35,1.64,4.51,4.55,6.19L233.12,418
				c7.48,4.33,20.65,3.75,29.35-1.28l231.21-134.41c4.14-2.39,6.6-5.47,6.75-8.45l0.02-8.98l0-5.36h-3.28l-0.4-0.27
				c-0.43-0.29-0.63-0.42-0.84-0.54L314.88,154.2c-7.48-4.32-20.64-3.75-29.35,1.28L54.32,289.89c-1.48,0.85-2.76,1.8-3.8,2.82
				l-0.46,0.46H47.55z"/>
		</g>
		<g id="XMLID_7764_">
			<path id="XMLID_7768_" class="st5" d="M232.32,404.19L51.3,299.68c-7.93-4.58-6.94-12.58,2.22-17.87l231.21-134.41
				c9.16-5.29,23.01-5.86,30.94-1.28l181.02,104.51c7.93,4.58,6.94,12.58-2.22,17.87L263.26,402.91
				C254.11,408.2,240.25,408.77,232.32,404.19z"/>
			<path id="XMLID_7765_" class="st4" d="M245.76,408.85c-5.33,0-10.43-1.08-14.24-3.27L50.5,301.06c-3.97-2.29-6.15-5.54-6.15-9.14
				c0-4.23,3.05-8.41,8.37-11.49l231.21-134.41c9.59-5.52,24.18-6.1,32.54-1.28l181.02,104.51c3.97,2.29,6.15,5.54,6.15,9.14
				c0,4.23-3.05,8.42-8.37,11.49L264.06,404.3C258.84,407.31,252.13,408.85,245.76,408.85z M302.24,144.61
				c-5.8,0-11.92,1.42-16.71,4.18L54.32,283.2c-4.31,2.48-6.78,5.66-6.78,8.72c0,2.42,1.62,4.68,4.56,6.38l181.02,104.51
				c7.48,4.33,20.65,3.74,29.35-1.28l231.21-134.41c4.31-2.49,6.78-5.67,6.78-8.72c0-2.42-1.62-4.68-4.56-6.38L314.88,147.5
				C311.51,145.56,306.99,144.61,302.24,144.61z"/>
		</g>
		<g id="XMLID_7761_">
			<path id="XMLID_7762_" class="st4" d="M249.59,394.03l-0.77-0.44L74.26,292.81L294.21,164.9l0.77,0.44l174.55,100.78
				L249.59,394.03z"/>
		</g>
		<g id="XMLID_7756_">
			<polygon id="XMLID_7760_" class="st6" points="250.53,383.87 72.88,281.31 297.17,150.89 474.82,253.45 			"/>
			<path id="XMLID_7757_" class="st4" d="M250.53,385.71l-0.8-0.46L69.69,281.31l227.49-132.26l0.8,0.46l180.04,103.95
				L250.53,385.71z M76.07,281.31l174.46,100.73l221.11-128.58L297.17,152.73L76.07,281.31z"/>
		</g>
		<g id="XMLID_7745_">
			<g id="XMLID_7751_">
				<path id="XMLID_7755_" class="st4" d="M446.54,193.74l-0.08,0.7l-18.09-10.44c-0.31,0.23-0.6,0.47-0.97,0.68
					c-5.1,2.95-8.07,7.65-13.18,4.71c-5.1-2.95-10.41-3.93-5.3-6.87c0.37-0.21,0.78-0.38,1.18-0.56l1.66-13.63l-7.04-2.44
					l-1.09,12.34l-19.99-20.04c-3.51-2.03-9.51-1.05-10.66,1.74l-2.55,6.2l-2.33-0.23v14.86c0,0.05,0,0.1,0,0.15v0.05l0.01,0
					c0.08,0.89,0.71,1.75,1.83,2.4l54.99,31.75c1.53,0.89,3.75,1.26,5.86,0.99l20.13-2.58c3.24-0.42,5.09-2.09,4.95-3.77v-14.62
					L446.54,193.74z"/>
				<path id="XMLID_7752_" class="st4" d="M429.43,217.75c-1.95,0-3.85-0.45-5.29-1.29l-54.98-31.74c-0.77-0.45-1.39-0.99-1.84-1.6
					l-0.79,0.39l-0.01-19.39l2.9,0.29l2.1-5.1c0.58-1.41,1.96-2.55,3.88-3.21c2.96-1,6.59-0.73,9.05,0.69l0.33,0.26l17.57,17.62
					l0.95-10.82l10.27,3.64v16.86l-2.81-0.95c-0.59,0.26-0.83,0.36-1.04,0.49c-0.57,0.32-0.9,0.57-1.09,0.74
					c0.58,0.44,1.89,1.08,2.89,1.57c1.09,0.53,2.3,1.12,3.49,1.81c2.72,1.57,4.42,0.44,7.71-2.04c1.14-0.86,2.42-1.83,3.87-2.66
					c0.21-0.12,0.39-0.26,0.57-0.39l0.84-0.64l1.15,0.35l16.18,9.34l11.16,1.62c0.56,0.08,0.97,0.56,0.97,1.13v15.02
					c0.22,2.59-2.38,4.84-6.34,5.35L431,217.65C430.48,217.72,429.95,217.75,429.43,217.75z M369.7,180.74l0,0.05
					c0.04,0.38,0.42,0.81,1.04,1.17l54.99,31.74c1.23,0.71,3.1,1.01,4.86,0.79l20.13-2.58c2.42-0.31,3.62-1.39,3.57-2.06l0-13.38
					l-6.35-0.92l-0.17,1.49l-19.3-11.15c-0.09,0.06-0.17,0.11-0.26,0.17c-1.29,0.74-2.44,1.61-3.55,2.45
					c-3.23,2.43-6.57,4.95-11.23,2.26c-1.12-0.65-2.26-1.2-3.29-1.7c-2.69-1.3-4.82-2.34-4.89-4.32c-0.06-1.7,1.5-2.83,2.87-3.62
					c0.12-0.07,2.13,1.25,2.26,1.18v-12.38l-4.24-2.01l-1.22,13.85l-22.24-22.31c-1.67-0.88-4.27-1.01-6.26-0.34
					c-1.01,0.34-1.74,0.87-1.96,1.4l-3,7.3l-1.75-0.18L369.7,180.74z"/>
			</g>
			<g id="XMLID_7746_">
				<path id="XMLID_7750_" class="st6" d="M454.04,192.7l-25.67-14.82c-0.31,0.23-0.6,0.47-0.97,0.68c-5.1,2.95-13.38,2.95-18.48,0
					c-5.1-2.95-5.1-7.72,0-10.67c0.37-0.21,0.78-0.38,1.18-0.56l-26.46-15.28c-3.51-2.03-9.51-1.05-10.66,1.74l-4.72,11.48
					c-0.51,1.24,0.13,2.54,1.69,3.44l54.99,31.75c1.53,0.89,3.75,1.26,5.86,0.99l20.13-2.58
					C455.82,198.24,457.58,194.74,454.04,192.7z"/>
				<path id="XMLID_7747_" class="st4" d="M429.43,203.13c-1.95,0-3.85-0.45-5.29-1.29l-54.98-31.74c-2.26-1.31-3.18-3.44-2.36-5.43
					l4.72-11.48c0.58-1.41,1.96-2.55,3.88-3.2c2.96-1,6.59-0.73,9.05,0.68l29.13,16.82l-2.81,1.29c-0.59,0.26-0.83,0.36-1.04,0.49
					c-1.96,1.13-3.04,2.53-3.04,3.95c0,1.42,1.07,2.83,3.03,3.96c4.58,2.64,12.32,2.64,16.89,0c0.21-0.12,0.39-0.26,0.57-0.39
					l0.84-0.64l1.15,0.35l25.67,14.83c1.98,1.14,2.95,2.9,2.59,4.7c-0.46,2.3-2.87,3.99-6.29,4.43L431,203.03
					C430.48,203.1,429.95,203.13,429.43,203.13z M379.16,152.58c-0.95,0-1.9,0.14-2.74,0.43c-1.01,0.34-1.74,0.87-1.96,1.4
					l-4.72,11.48c-0.27,0.65,0.71,1.27,1.01,1.45l54.99,31.74c1.23,0.71,3.1,1.01,4.86,0.79l20.13-2.58
					c2.39-0.31,3.46-1.32,3.57-1.9c0.12-0.58-0.78-1.15-1.05-1.31l-24.77-14.3c-0.09,0.06-0.17,0.11-0.26,0.17
					c-5.64,3.25-14.46,3.24-20.09,0c-2.98-1.72-4.62-4.11-4.62-6.72c0-2.22,1.2-4.28,3.39-5.91l-24.04-13.87
					C381.87,152.87,380.52,152.58,379.16,152.58z"/>
			</g>
		</g>
		<g id="XMLID_7740_">
			<path id="XMLID_7744_" class="st6" d="M457.1,243.76l-142.34-82.18c-3.42-1.97-2.99-5.42,0.96-7.7l8.81-5.08
				c3.95-2.28,9.92-2.53,13.34-0.55l142.34,82.18c3.42,1.97,2.99,5.42-0.96,7.7l-8.8,5.08C466.5,245.48,460.52,245.73,457.1,243.76z
				"/>
			<path id="XMLID_7741_" class="st4" d="M462.91,246.69c-2.45,0-4.81-0.51-6.61-1.55l-142.34-82.18c-2-1.16-3.11-2.84-3.11-4.73
				c0-2.16,1.48-4.25,4.06-5.74l8.81-5.09c4.46-2.57,11.02-2.82,14.94-0.55l142.34,82.18c2,1.16,3.11,2.84,3.11,4.73
				c0,2.16-1.48,4.25-4.06,5.74l-8.81,5.09C468.83,245.98,465.8,246.69,462.91,246.69z M457.9,242.37
				c2.93,1.69,8.31,1.44,11.75-0.55l8.81-5.09c1.54-0.89,2.47-2,2.47-2.98c0-0.9-0.82-1.57-1.51-1.97l-142.34-82.17
				c-2.92-1.69-8.31-1.44-11.75,0.55l-8.81,5.08c-1.54,0.89-2.47,2-2.47,2.98c0,0.9,0.82,1.56,1.51,1.96L457.9,242.37z"/>
		</g>
		<g id="XMLID_7735_">
			<path id="XMLID_7739_" class="st7" d="M412.51,224.81l-71.17-41.09c-1.71-0.99-1.5-2.71,0.48-3.85l4.4-2.54
				c1.97-1.14,4.96-1.26,6.67-0.28l71.17,41.09c1.71,0.99,1.5,2.71-0.48,3.85l-4.4,2.54C417.21,225.68,414.22,225.8,412.51,224.81z"
				/>
			<path id="XMLID_7736_" class="st4" d="M415.43,227.08c-1.37,0-2.68-0.29-3.71-0.88l-71.17-41.09c-1.24-0.72-1.96-1.83-1.95-3.06
				c0-1.37,0.88-2.67,2.43-3.56l4.4-2.54c2.5-1.44,6.04-1.56,8.27-0.28l71.17,41.09c1.24,0.72,1.95,1.83,1.95,3.06
				c0,1.37-0.88,2.66-2.43,3.56l-4.41,2.54C418.64,226.69,417,227.08,415.43,227.08z M350.02,177.97c-1.04,0-2.16,0.25-3,0.74
				l-4.4,2.54c-0.67,0.38-0.83,0.73-0.83,0.8c0.01,0.02,0.1,0.14,0.36,0.29l71.17,41.09c1.23,0.72,3.6,0.58,5.08-0.27l4.41-2.54
				c0.66-0.38,0.83-0.73,0.83-0.8c-0.01-0.02-0.1-0.14-0.36-0.29l-71.17-41.09C351.57,178.12,350.81,177.97,350.02,177.97z"/>
		</g>
	</g>
	<g id="XMLID_3383_" class="st2">
		<g id="XMLID_8513_">
			<path id="XMLID_8496_" class="st8" d="M253.32,371.33c1.24,0.71,1.24,1.87,0,2.59c-1.24,0.71-3.25,0.71-4.48,0
				c-1.24-0.72-1.24-1.87,0-2.59C250.08,370.61,252.08,370.61,253.32,371.33z"/>
			<path id="XMLID_8495_" class="st8" d="M265.05,364.56c1.24,0.71,1.24,1.87,0,2.59c-1.24,0.71-3.25,0.71-4.48,0
				c-1.24-0.71-1.24-1.87,0-2.59C261.8,363.84,263.81,363.84,265.05,364.56z"/>
			<path id="XMLID_8494_" class="st8" d="M276.77,357.79c1.24,0.71,1.24,1.87,0,2.59c-1.24,0.71-3.25,0.71-4.48,0
				c-1.24-0.71-1.24-1.87,0-2.59C273.53,357.08,275.53,357.08,276.77,357.79z"/>
			<path id="XMLID_8493_" class="st8" d="M288.5,351.02c1.24,0.72,1.24,1.87,0,2.59c-1.24,0.71-3.25,0.71-4.48,0
				c-1.24-0.71-1.24-1.87,0-2.59C285.25,350.31,287.26,350.31,288.5,351.02z"/>
			<path id="XMLID_8492_" class="st8" d="M300.22,344.26c1.24,0.71,1.24,1.87,0,2.59c-1.24,0.71-3.25,0.71-4.48,0
				c-1.24-0.71-1.24-1.87,0-2.59C296.98,343.54,298.98,343.54,300.22,344.26z"/>
			<ellipse id="XMLID_8491_" class="st8" cx="309.7" cy="338.78" rx="3.17" ry="1.83"/>
			<path id="XMLID_8490_" class="st8" d="M323.67,330.72c1.24,0.71,1.24,1.87,0,2.59c-1.24,0.71-3.25,0.71-4.48,0
				c-1.24-0.71-1.24-1.87,0-2.59C320.42,330.01,322.43,330.01,323.67,330.72z"/>
			<path id="XMLID_8489_" class="st8" d="M335.4,323.96c1.24,0.71,1.24,1.87,0,2.59c-1.24,0.71-3.25,0.71-4.48,0
				c-1.24-0.72-1.24-1.87,0-2.59C332.15,323.24,334.16,323.24,335.4,323.96z"/>
			<path id="XMLID_8488_" class="st8" d="M347.12,317.19c1.24,0.71,1.24,1.87,0,2.59c-1.24,0.71-3.25,0.71-4.48,0
				c-1.24-0.71-1.24-1.87,0-2.59C343.87,316.47,345.88,316.47,347.12,317.19z"/>
			<path id="XMLID_8487_" class="st8" d="M358.85,310.42c1.24,0.71,1.24,1.87,0,2.59c-1.24,0.71-3.25,0.71-4.48,0
				c-1.24-0.71-1.24-1.87,0-2.59C355.6,309.71,357.61,309.71,358.85,310.42z"/>
			<path id="XMLID_8486_" class="st8" d="M370.57,303.65c1.24,0.71,1.24,1.87,0,2.59c-1.24,0.71-3.25,0.71-4.48,0
				c-1.24-0.71-1.24-1.87,0-2.59C367.32,302.94,369.33,302.94,370.57,303.65z"/>
			<path id="XMLID_8485_" class="st8" d="M382.3,296.89c1.24,0.71,1.24,1.87,0,2.59c-1.24,0.71-3.25,0.71-4.48,0
				c-1.24-0.71-1.24-1.87,0-2.59C379.05,296.17,381.06,296.17,382.3,296.89z"/>
			<path id="XMLID_8484_" class="st8" d="M394.02,290.12c1.24,0.71,1.24,1.87,0,2.59c-1.24,0.71-3.25,0.71-4.48,0
				c-1.24-0.71-1.24-1.87,0-2.59C390.77,289.4,392.78,289.4,394.02,290.12z"/>
			<ellipse id="XMLID_8483_" class="st8" cx="403.5" cy="284.65" rx="3.17" ry="1.83"/>
			<path id="XMLID_8482_" class="st8" d="M417.47,276.58c1.24,0.71,1.24,1.87,0,2.59c-1.24,0.71-3.25,0.71-4.48,0
				c-1.24-0.71-1.24-1.87,0-2.59C414.22,275.87,416.23,275.87,417.47,276.58z"/>
			<path id="XMLID_8481_" class="st8" d="M429.19,269.82c1.24,0.71,1.24,1.87,0,2.59c-1.24,0.71-3.25,0.71-4.48,0
				c-1.24-0.71-1.24-1.87,0-2.59C425.95,269.1,427.96,269.1,429.19,269.82z"/>
			<path id="XMLID_8480_" class="st8" d="M241.6,364.56c1.24,0.71,1.24,1.87,0,2.59c-1.24,0.72-3.25,0.72-4.48,0
				c-1.24-0.71-1.24-1.87,0-2.59C238.35,363.84,240.36,363.84,241.6,364.56z"/>
			<ellipse id="XMLID_8479_" class="st8" cx="251.08" cy="359.09" rx="3.17" ry="1.83"/>
			<path id="XMLID_8478_" class="st8" d="M265.05,351.02c1.24,0.72,1.24,1.87,0,2.59c-1.24,0.71-3.25,0.71-4.48,0
				c-1.24-0.71-1.24-1.87,0-2.59C261.8,350.31,263.81,350.31,265.05,351.02z"/>
			<path id="XMLID_8477_" class="st8" d="M276.77,344.26c1.24,0.71,1.24,1.87,0,2.59c-1.24,0.71-3.25,0.71-4.48,0
				c-1.24-0.71-1.24-1.87,0-2.59C273.53,343.54,275.53,343.54,276.77,344.26z"/>
			<ellipse id="XMLID_8476_" class="st8" cx="286.25" cy="338.78" rx="3.17" ry="1.83"/>
			<path id="XMLID_8475_" class="st8" d="M300.22,330.72c1.24,0.71,1.24,1.87,0,2.59c-1.24,0.71-3.25,0.71-4.48,0
				c-1.24-0.71-1.24-1.87,0-2.59C296.98,330.01,298.98,330.01,300.22,330.72z"/>
			<path id="XMLID_8474_" class="st8" d="M311.95,323.96c1.24,0.71,1.24,1.87,0,2.59c-1.24,0.71-3.25,0.71-4.48,0
				c-1.24-0.72-1.24-1.87,0-2.59C308.7,323.24,310.71,323.24,311.95,323.96z"/>
			<path id="XMLID_8473_" class="st8" d="M323.67,317.19c1.24,0.71,1.24,1.87,0,2.59c-1.24,0.72-3.25,0.72-4.48,0
				c-1.24-0.71-1.24-1.87,0-2.59C320.42,316.47,322.43,316.47,323.67,317.19z"/>
			<path id="XMLID_8472_" class="st8" d="M335.4,310.42c1.24,0.71,1.24,1.87,0,2.59c-1.24,0.71-3.25,0.71-4.48,0
				c-1.24-0.71-1.24-1.87,0-2.59C332.15,309.71,334.16,309.71,335.4,310.42z"/>
			<ellipse id="XMLID_8471_" class="st8" cx="344.88" cy="304.95" rx="3.17" ry="1.83"/>
			<path id="XMLID_8470_" class="st8" d="M358.85,296.89c1.24,0.71,1.24,1.87,0,2.59c-1.24,0.71-3.25,0.71-4.48,0
				c-1.24-0.71-1.24-1.87,0-2.59C355.6,296.17,357.61,296.17,358.85,296.89z"/>
			<ellipse id="XMLID_8469_" class="st8" cx="368.33" cy="291.41" rx="3.17" ry="1.83"/>
			<ellipse id="XMLID_8468_" class="st8" cx="380.05" cy="284.65" rx="3.17" ry="1.83"/>
			<path id="XMLID_8467_" class="st8" d="M394.02,276.58c1.24,0.71,1.24,1.87,0,2.59c-1.24,0.71-3.25,0.71-4.48,0
				c-1.24-0.71-1.24-1.87,0-2.59C390.77,275.87,392.78,275.87,394.02,276.58z"/>
			<path id="XMLID_8466_" class="st8" d="M405.75,269.82c1.24,0.71,1.24,1.87,0,2.59c-1.24,0.71-3.25,0.71-4.48,0
				c-1.24-0.71-1.24-1.87,0-2.59C402.5,269.1,404.51,269.1,405.75,269.82z"/>
			<path id="XMLID_8465_" class="st8" d="M417.47,263.05c1.24,0.71,1.24,1.87,0,2.59c-1.24,0.72-3.25,0.72-4.48,0
				c-1.24-0.71-1.24-1.87,0-2.59C414.22,262.34,416.23,262.34,417.47,263.05z"/>
			<path id="XMLID_8464_" class="st8" d="M229.87,357.79c1.24,0.71,1.24,1.87,0,2.59c-1.24,0.71-3.25,0.71-4.48,0
				c-1.24-0.72-1.24-1.87,0-2.59C226.63,357.08,228.63,357.08,229.87,357.79z"/>
			<path id="XMLID_8463_" class="st8" d="M241.6,351.02c1.24,0.72,1.24,1.87,0,2.59c-1.24,0.71-3.25,0.71-4.48,0
				c-1.24-0.71-1.24-1.87,0-2.59C238.35,350.31,240.36,350.31,241.6,351.02z"/>
			<path id="XMLID_8462_" class="st8" d="M253.32,344.26c1.24,0.71,1.24,1.87,0,2.59c-1.24,0.71-3.25,0.71-4.48,0
				c-1.24-0.71-1.24-1.87,0-2.59C250.08,343.54,252.08,343.54,253.32,344.26z"/>
			<path id="XMLID_8461_" class="st8" d="M265.05,337.49c1.24,0.71,1.24,1.87,0,2.59c-1.24,0.71-3.25,0.71-4.48,0
				c-1.24-0.71-1.24-1.87,0-2.59C261.8,336.78,263.81,336.78,265.05,337.49z"/>
			<path id="XMLID_8460_" class="st8" d="M276.77,330.72c1.24,0.71,1.24,1.87,0,2.59c-1.24,0.71-3.25,0.71-4.48,0
				c-1.24-0.71-1.24-1.87,0-2.59C273.53,330.01,275.53,330.01,276.77,330.72z"/>
			<path id="XMLID_8459_" class="st8" d="M288.5,323.96c1.24,0.71,1.24,1.87,0,2.59c-1.24,0.71-3.25,0.71-4.48,0
				c-1.24-0.72-1.24-1.87,0-2.59C285.25,323.24,287.26,323.24,288.5,323.96z"/>
			<ellipse id="XMLID_8458_" class="st8" cx="297.98" cy="318.48" rx="3.17" ry="1.83"/>
			<path id="XMLID_8457_" class="st8" d="M311.95,310.42c1.24,0.71,1.24,1.87,0,2.59c-1.24,0.71-3.25,0.71-4.48,0
				c-1.24-0.71-1.24-1.87,0-2.59C308.7,309.71,310.71,309.71,311.95,310.42z"/>
			<ellipse id="XMLID_8456_" class="st8" cx="321.43" cy="304.95" rx="3.17" ry="1.83"/>
			<path id="XMLID_8455_" class="st8" d="M335.4,296.89c1.24,0.71,1.24,1.87,0,2.59c-1.24,0.71-3.25,0.71-4.48,0
				c-1.24-0.71-1.24-1.87,0-2.59C332.15,296.17,334.16,296.17,335.4,296.89z"/>
			<path id="XMLID_8454_" class="st8" d="M347.12,290.12c1.24,0.71,1.24,1.87,0,2.59c-1.24,0.71-3.25,0.71-4.48,0
				c-1.24-0.71-1.24-1.87,0-2.59C343.87,289.41,345.88,289.41,347.12,290.12z"/>
			<path id="XMLID_8453_" class="st8" d="M358.85,283.35c1.24,0.71,1.24,1.87,0,2.59c-1.24,0.71-3.25,0.71-4.48,0
				c-1.24-0.71-1.24-1.87,0-2.59C355.6,282.64,357.61,282.64,358.85,283.35z"/>
			<path id="XMLID_8452_" class="st8" d="M370.57,276.59c1.24,0.71,1.24,1.87,0,2.59c-1.24,0.71-3.25,0.71-4.48,0
				c-1.24-0.71-1.24-1.87,0-2.59C367.33,275.87,369.33,275.87,370.57,276.59z"/>
			<path id="XMLID_8451_" class="st8" d="M382.3,269.82c1.24,0.71,1.24,1.87,0,2.59c-1.24,0.71-3.25,0.71-4.48,0
				c-1.24-0.71-1.24-1.87,0-2.59C379.05,269.1,381.06,269.1,382.3,269.82z"/>
			<path id="XMLID_8450_" class="st8" d="M394.02,263.05c1.24,0.71,1.24,1.87,0,2.59c-1.24,0.72-3.25,0.72-4.48,0
				c-1.24-0.71-1.24-1.87,0-2.59C390.77,262.34,392.78,262.34,394.02,263.05z"/>
			<path id="XMLID_8449_" class="st8" d="M405.75,256.28c1.24,0.71,1.24,1.87,0,2.59c-1.24,0.71-3.25,0.71-4.48,0
				c-1.24-0.71-1.24-1.87,0-2.59C402.5,255.57,404.51,255.57,405.75,256.28z"/>
			<path id="XMLID_8421_" class="st8" d="M436.46,263.15c1.24-0.72,3.24-0.72,4.48-0.01c1.24,0.71,1.24,1.87,0.01,2.59
				c-1.24,0.72-3.24,0.72-4.48,0C435.22,265.02,435.22,263.86,436.46,263.15z"/>
			<path id="XMLID_8420_" class="st8" d="M452.68,256.37c1.24,0.71,1.24,1.87,0,2.59c-1.24,0.71-3.25,0.71-4.48,0
				c-1.24-0.71-1.24-1.87,0-2.59C449.44,255.66,451.44,255.66,452.68,256.37z"/>
			<path id="XMLID_8419_" class="st8" d="M424.73,256.38c1.24-0.72,3.24-0.72,4.48,0c1.24,0.71,1.24,1.87,0.01,2.59
				c-1.24,0.72-3.24,0.72-4.48,0C423.5,258.25,423.5,257.1,424.73,256.38z"/>
			<ellipse id="XMLID_8321_" class="st8" cx="438.71" cy="250.9" rx="3.17" ry="1.83"/>
			<path id="XMLID_8320_" class="st8" d="M413.01,249.61c1.24-0.72,3.24-0.72,4.48-0.01c1.24,0.71,1.24,1.87,0.01,2.59
				c-1.24,0.72-3.24,0.72-4.48,0C411.78,251.49,411.77,250.33,413.01,249.61z"/>
			<path id="XMLID_8319_" class="st8" d="M429.23,242.84c1.24,0.71,1.24,1.87,0,2.59c-1.24,0.72-3.25,0.72-4.48,0
				c-1.24-0.71-1.24-1.87,0-2.59C425.99,242.12,427.99,242.12,429.23,242.84z"/>
		</g>
		<g id="XMLID_420_">
			<g id="XMLID_8533_">
				<path id="XMLID_8740_" class="st8" d="M94.54,279.32c1.24,0.71,1.24,1.87,0,2.59c-1.24,0.71-3.25,0.71-4.48,0
					c-1.24-0.71-1.24-1.87,0-2.59C91.29,278.61,93.3,278.61,94.54,279.32z"/>
				<ellipse id="XMLID_8739_" class="st8" cx="104.02" cy="273.85" rx="3.17" ry="1.83"/>
				<ellipse id="XMLID_8738_" class="st8" cx="115.75" cy="267.08" rx="3.17" ry="1.83"/>
				<ellipse id="XMLID_8737_" class="st8" cx="127.47" cy="260.32" rx="3.17" ry="1.83"/>
				<path id="XMLID_8736_" class="st8" d="M141.44,252.25c1.24,0.71,1.24,1.87,0,2.59c-1.24,0.71-3.25,0.71-4.48,0
					s-1.24-1.87,0-2.59C138.19,251.54,140.2,251.54,141.44,252.25z"/>
				<path id="XMLID_8638_" class="st8" d="M153.16,245.49c1.24,0.71,1.24,1.87,0,2.59c-1.24,0.71-3.25,0.71-4.48,0
					c-1.24-0.71-1.24-1.87,0-2.59C149.92,244.77,151.92,244.77,153.16,245.49z"/>
				<path id="XMLID_8637_" class="st8" d="M164.89,238.72c1.24,0.72,1.24,1.87,0,2.59c-1.24,0.71-3.25,0.71-4.48,0
					c-1.24-0.71-1.24-1.87,0-2.59C161.64,238,163.65,238,164.89,238.72z"/>
				<ellipse id="XMLID_8636_" class="st8" cx="174.37" cy="233.25" rx="3.17" ry="1.83"/>
				<path id="XMLID_8635_" class="st8" d="M188.34,225.19c1.24,0.71,1.24,1.87,0,2.59c-1.24,0.71-3.25,0.71-4.48,0
					c-1.24-0.71-1.24-1.87,0-2.59C185.09,224.47,187.1,224.47,188.34,225.19z"/>
				<path id="XMLID_8634_" class="st8" d="M200.06,218.42c1.24,0.71,1.24,1.87,0,2.59c-1.24,0.72-3.25,0.72-4.48,0
					c-1.24-0.71-1.24-1.87,0-2.59C196.82,217.7,198.82,217.7,200.06,218.42z"/>
				<path id="XMLID_8632_" class="st8" d="M211.79,211.65c1.24,0.71,1.24,1.87,0,2.59c-1.24,0.71-3.25,0.71-4.48,0
					c-1.24-0.72-1.24-1.87,0-2.59C208.54,210.94,210.55,210.94,211.79,211.65z"/>
				<path id="XMLID_8630_" class="st8" d="M223.51,204.88c1.24,0.71,1.24,1.87,0,2.59c-1.24,0.71-3.25,0.71-4.48,0
					c-1.24-0.71-1.24-1.87,0-2.59C220.27,204.17,222.27,204.17,223.51,204.88z"/>
				<path id="XMLID_8628_" class="st8" d="M235.24,198.12c1.24,0.71,1.24,1.87,0,2.59c-1.24,0.71-3.25,0.71-4.48,0
					c-1.24-0.71-1.24-1.87,0-2.59C231.99,197.4,234,197.4,235.24,198.12z"/>
				<path id="XMLID_8626_" class="st8" d="M246.96,191.35c1.24,0.72,1.24,1.87,0,2.59c-1.24,0.71-3.25,0.71-4.48,0
					c-1.24-0.71-1.24-1.87,0-2.59C243.72,190.63,245.72,190.63,246.96,191.35z"/>
				<path id="XMLID_8624_" class="st8" d="M258.69,184.58c1.24,0.71,1.24,1.87,0,2.59c-1.24,0.71-3.25,0.71-4.48,0
					c-1.24-0.71-1.24-1.87,0-2.59C255.44,183.87,257.45,183.87,258.69,184.58z"/>
				<path id="XMLID_8622_" class="st8" d="M270.41,177.81c1.24,0.71,1.24,1.87,0,2.59c-1.24,0.71-3.25,0.71-4.48,0
					c-1.24-0.71-1.24-1.87,0-2.59C267.17,177.1,269.17,177.1,270.41,177.81z"/>
				<path id="XMLID_8537_" class="st8" d="M277.67,171.14c1.24-0.72,3.24-0.72,4.48,0c1.24,0.71,1.24,1.87,0.01,2.59
					c-1.24,0.72-3.24,0.72-4.48,0C276.44,173.02,276.44,171.86,277.67,171.14z"/>
				<path id="XMLID_8535_" class="st8" d="M293.9,164.37c1.24,0.71,1.24,1.87,0,2.59c-1.24,0.71-3.25,0.71-4.48,0
					c-1.24-0.71-1.24-1.87,0-2.59C290.65,163.65,292.66,163.65,293.9,164.37z"/>
			</g>
			<g id="XMLID_8423_">
				<ellipse id="XMLID_8539_" class="st8" cx="103.96" cy="287.39" rx="3.17" ry="1.83"/>
				<path id="XMLID_8531_" class="st8" d="M117.93,279.33c1.24,0.71,1.24,1.87,0,2.59c-1.24,0.71-3.25,0.71-4.48,0
					c-1.24-0.71-1.24-1.87,0-2.59C114.68,278.61,116.69,278.61,117.93,279.33z"/>
				<ellipse id="XMLID_8512_" class="st8" cx="127.41" cy="273.86" rx="3.17" ry="1.83"/>
				<path id="XMLID_8511_" class="st8" d="M141.38,265.79c1.24,0.71,1.24,1.87,0,2.59c-1.24,0.71-3.25,0.71-4.48,0
					c-1.24-0.72-1.24-1.87,0-2.59C138.13,265.08,140.14,265.08,141.38,265.79z"/>
				<path id="XMLID_8510_" class="st8" d="M153.1,259.03c1.24,0.71,1.24,1.87,0,2.59c-1.24,0.71-3.25,0.71-4.48,0
					c-1.24-0.71-1.24-1.87,0-2.59C149.86,258.31,151.86,258.31,153.1,259.03z"/>
				<path id="XMLID_8509_" class="st8" d="M164.83,252.26c1.24,0.71,1.24,1.87,0,2.59c-1.24,0.71-3.25,0.71-4.48,0
					c-1.24-0.71-1.24-1.87,0-2.59C161.58,251.55,163.59,251.55,164.83,252.26z"/>
				<path id="XMLID_8508_" class="st8" d="M176.55,245.49c1.24,0.71,1.24,1.87,0,2.59c-1.24,0.71-3.25,0.71-4.48,0
					c-1.24-0.71-1.24-1.87,0-2.59C173.31,244.78,175.31,244.78,176.55,245.49z"/>
				<path id="XMLID_8507_" class="st8" d="M188.28,238.73c1.24,0.71,1.24,1.87,0,2.59c-1.24,0.71-3.25,0.71-4.48,0
					c-1.24-0.71-1.24-1.87,0-2.59C185.03,238.01,187.04,238.01,188.28,238.73z"/>
				<ellipse id="XMLID_8506_" class="st8" cx="197.76" cy="233.25" rx="3.17" ry="1.83"/>
				<path id="XMLID_8505_" class="st8" d="M211.73,225.19c1.24,0.71,1.24,1.87,0,2.59c-1.24,0.71-3.25,0.71-4.48,0
					c-1.24-0.71-1.24-1.87,0-2.59C208.48,224.48,210.49,224.48,211.73,225.19z"/>
				<path id="XMLID_8504_" class="st8" d="M223.45,218.42c1.24,0.71,1.24,1.87,0,2.59c-1.24,0.71-3.25,0.71-4.48,0
					c-1.24-0.71-1.24-1.87,0-2.59C220.21,217.71,222.21,217.71,223.45,218.42z"/>
				<path id="XMLID_8503_" class="st8" d="M235.18,211.66c1.24,0.71,1.24,1.87,0,2.59c-1.24,0.71-3.25,0.71-4.48,0
					c-1.24-0.71-1.24-1.87,0-2.59C231.93,210.94,233.94,210.94,235.18,211.66z"/>
				<path id="XMLID_8502_" class="st8" d="M246.9,204.89c1.24,0.71,1.24,1.87,0,2.59c-1.24,0.72-3.25,0.72-4.48,0
					c-1.24-0.71-1.24-1.87,0-2.59C243.66,204.18,245.66,204.18,246.9,204.89z"/>
				<ellipse id="XMLID_8501_" class="st8" cx="256.38" cy="199.42" rx="3.17" ry="1.83"/>
				<path id="XMLID_8500_" class="st8" d="M270.35,191.36c1.24,0.71,1.24,1.87,0,2.59c-1.24,0.71-3.25,0.71-4.48,0
					c-1.24-0.71-1.24-1.87,0-2.59C267.11,190.64,269.11,190.64,270.35,191.36z"/>
				<path id="XMLID_8499_" class="st8" d="M282.08,184.59c1.24,0.71,1.24,1.87,0,2.59c-1.24,0.71-3.25,0.71-4.48,0
					c-1.24-0.71-1.24-1.87,0-2.59C278.83,183.87,280.84,183.87,282.08,184.59z"/>
				<path id="XMLID_8498_" class="st8" d="M289.34,177.92c1.24-0.72,3.24-0.72,4.48,0c1.24,0.71,1.24,1.87,0.01,2.59
					c-1.24,0.72-3.24,0.72-4.48,0C288.11,179.79,288.1,178.63,289.34,177.92z"/>
				<path id="XMLID_8497_" class="st8" d="M305.56,171.14c1.24,0.71,1.24,1.87,0,2.59c-1.24,0.71-3.25,0.71-4.48,0
					c-1.24-0.71-1.24-1.87,0-2.59C302.32,170.43,304.32,170.43,305.56,171.14z"/>
			</g>
		</g>
	</g>
	<g id="XMLID_7699_" class="st2">
		<g id="XMLID_7729_">
			<path id="XMLID_7733_" class="st4" d="M284.78,259.89c-5.95-3.44-15.61-3.44-21.56,0c-5.95,3.44-5.95,9.01,0,12.45
				c5.95,3.44,15.61,3.44,21.56,0C290.74,268.91,290.74,263.33,284.78,259.89z"/>
			<path id="XMLID_7730_" class="st4" d="M308.26,243.99c-19.2-11.09-49.29-11.1-68.5,0c-9.92,5.72-15.38,13.58-15.38,22.12
				c0,8.54,5.46,16.41,15.38,22.13c9.6,5.55,21.93,8.32,34.25,8.32c12.32,0,24.65-2.77,34.25-8.32
				c9.92-5.72,15.38-13.59,15.38-22.13C323.64,257.57,318.17,249.72,308.26,243.99z M304.18,281.19c-16.63,9.6-43.71,9.6-60.35,0
				c-7.29-4.21-11.31-9.57-11.3-15.08c0-5.51,4.01-10.86,11.3-15.07c8.32-4.8,19.25-7.2,30.17-7.2c10.93,0,21.86,2.4,30.18,7.2
				c7.29,4.21,11.3,9.56,11.3,15.07C315.49,271.62,311.47,276.98,304.18,281.19z"/>
		</g>
		<g id="XMLID_7724_">
			<path id="XMLID_7728_" class="st9" d="M284.78,251.73c-5.95-3.44-15.61-3.44-21.56,0c-5.95,3.44-5.95,9.01,0,12.45
				c5.95,3.44,15.61,3.44,21.56,0C290.74,260.74,290.74,255.16,284.78,251.73z"/>
			<path id="XMLID_7725_" class="st9" d="M308.25,235.82c-19.2-11.09-49.29-11.1-68.5,0c-9.92,5.72-15.38,13.58-15.38,22.12
				c0,8.54,5.46,16.41,15.38,22.13c9.6,5.55,21.92,8.32,34.25,8.32c12.32,0,24.65-2.77,34.25-8.32
				c9.92-5.72,15.38-13.59,15.38-22.13C323.64,249.4,318.17,241.55,308.25,235.82z M304.18,273.03c-16.63,9.6-43.71,9.6-60.35,0
				c-7.29-4.21-11.31-9.57-11.3-15.08c0-5.51,4.01-10.86,11.3-15.07c8.32-4.8,19.25-7.2,30.17-7.2c10.93,0,21.86,2.4,30.18,7.2
				c7.29,4.21,11.3,9.56,11.3,15.07C315.49,263.46,311.47,268.81,304.18,273.03z"/>
		</g>
		<g id="XMLID_7701_">
			<g id="XMLID_7704_">
				<g id="XMLID_7712_">
					<path id="XMLID_7721_" class="st10" d="M267.59,9.43c-32.17,14.82-61.01,59.71-63.74,101.19c-1.09,16.6,2.19,30.03,8.7,39.18
						l46.33,87.86l22.22,10.85c2-4.53,34.41-158.86,35.9-163.5l0,0c3.48-10.85,27.19-17.66,27.36-28.23
						C345.01,18.14,298.96-5.02,267.59,9.43z M263.52,108.45c-12.67,6.32-22.38-1.44-21.58-17.2c0.78-15.56,11.52-32.85,23.88-38.75
						c12.24-5.84,21.69,1.59,21.2,16.74C286.54,84.57,276.06,102.18,263.52,108.45z"/>
					<path id="XMLID_7718_" class="st6" d="M271.6,17.34c-32.17,14.82-61.01,59.71-63.74,101.19c-0.52,7.89,0.01,14.99,1.35,21.33
						c36.7,22.07,64.2,20.78,92.86,40.34c8.92-41.48,18.16-84.85,18.94-87.28c3.48-10.85,21.25-18.98,21.43-29.54
						C343.08,24.73,302.97,2.89,271.6,17.34z M267.53,116.36c-12.67,6.32-22.37-1.43-21.58-17.2c0.78-15.56,11.52-32.85,23.88-38.75
						c12.24-5.84,21.69,1.59,21.2,16.74C290.55,92.48,280.07,110.09,267.53,116.36z"/>
					<path id="XMLID_7713_" class="st4" d="M282.31,251.82l-25.22-12.32l-0.37-0.71l-46.33-87.87c-6.91-9.68-10.08-23.76-8.98-40.47
						c2.75-41.64,31.98-87.96,65.16-103.26l0,0c16.68-7.7,38.54-5.45,55.65,5.72c15.92,10.38,24.88,26.38,24.58,43.9
						c-0.12,6.82-7.44,11.83-14.51,16.67c-5.69,3.89-11.58,7.92-12.97,12.26c-0.58,1.84-6.63,30.01-13.03,59.84
						c-12.69,59.14-21.77,101.21-22.96,103.91L282.31,251.82z M260.67,235.81l18.88,9.22c2.99-12.02,13.83-62.56,21.97-100.47
						c7.76-36.14,12.54-58.39,13.16-60.3c1.9-5.94,8.49-10.45,14.86-14.81c6.05-4.14,12.31-8.42,12.39-12.71
						c0.26-15.8-7.89-30.28-22.37-39.72c-15.74-10.27-35.73-12.37-50.94-5.37l0,0c-31.73,14.62-59.69,59.09-62.33,99.13
						c-1.03,15.56,1.83,28.56,8.25,37.59L260.67,235.81z M255.11,113.09c-2.88,0-5.55-0.76-7.89-2.28
						c-5.37-3.5-8.18-10.68-7.73-19.68c0.84-16.54,11.93-34.48,25.27-40.84c6.28-2.99,12.29-2.98,16.93,0.06
						c5.21,3.41,8.05,10.32,7.77,18.96c-0.52,16.19-11.67,34.73-24.85,41.33h0C261.33,112.27,258.11,113.09,255.11,113.09z
						 M273.77,52.96c-2.13,0-4.47,0.58-6.9,1.74c-11.66,5.56-21.75,22.02-22.49,36.67c-0.37,7.23,1.65,12.82,5.52,15.35
						c3.24,2.13,7.69,1.95,12.53-0.46c11.75-5.87,21.68-22.51,22.15-37.11c0.22-6.89-1.81-12.26-5.56-14.71
						C277.51,53.45,275.73,52.96,273.77,52.96z"/>
				</g>
				<g id="XMLID_7705_">
					<g id="XMLID_7706_">
						<path id="XMLID_7710_" class="st4" d="M344.87,63.42c0.65-38.64-23.7-57.59-55.07-43.14
							c-32.17,14.82-61.01,59.71-63.74,101.19c-1.09,16.6,2.19,30.03,8.7,39.18l46.33,87.86l52.87-138.87
							c2-4.53,3.76-9.14,5.25-13.79l0,0l0,0C342.69,85.01,344.7,73.98,344.87,63.42z"/>
						<path id="XMLID_7707_" class="st4" d="M282.31,251.82l-2.98-1.43l-46.73-88.61c-6.91-9.67-10.07-23.76-8.98-40.47
							c2.75-41.64,31.98-87.96,65.16-103.26c14.86-6.84,28.98-6.73,39.77,0.31c12.45,8.12,19.11,24.14,18.76,45.09l0,0
							c-0.18,10.59-2.12,21.74-5.78,33.15c-1.51,4.71-3.31,9.43-5.34,14.02L282.31,251.82z M309.87,17.9
							c-5.95,0-12.39,1.53-19.04,4.59c-31.73,14.62-59.69,59.09-62.33,99.13c-1.02,15.57,1.83,28.57,8.25,37.6l43.98,83.36
							l50.95-133.82c2.01-4.55,3.75-9.12,5.21-13.66c3.51-10.95,5.37-21.63,5.54-31.73c0.32-18.94-5.71-33.85-16.54-40.91
							C321.23,19.42,315.79,17.9,309.87,17.9z"/>
					</g>
				</g>
			</g>
			<g id="XMLID_2_">
				<path id="XMLID_78_" class="st6" d="M285.68,156.92l-23.58-16.04c-3.31-2.25-3.07-8.86,0.54-14.75l0,0
					c3.6-5.9,9.2-8.85,12.51-6.6l11.89,8.09l21.94-44.58c3.09-6.16,8.67-10.03,12.46-8.65h0c3.79,1.38,4.35,7.5,1.26,13.66
					l-32.87,66.35C288.77,156.49,286.81,157.69,285.68,156.92z"/>
			</g>
			<g id="XMLID_7702_">
				<path id="XMLID_7703_" class="st10" d="M282.94,149.49l-23.58-16.04c-3.31-2.25-3.07-8.86,0.54-14.75l0,0
					c3.6-5.9,9.2-8.85,12.51-6.6l11.89,8.09l21.94-44.58c3.09-6.16,8.67-10.03,12.46-8.65h0c3.79,1.38,4.35,7.5,1.26,13.66
					l-32.87,66.35C286.02,149.06,284.07,150.26,282.94,149.49z"/>
			</g>
		</g>
	</g>
</g>
<g>
	<path id="XMLID_177_" class="st11" d="M204.72,419.01L18.3,311.38c-7.61-4.4-7.63-15.38-0.03-19.8l247.82-144.15l233.45,134.78
		l-235,136.7C246.06,429.66,223.23,429.7,204.72,419.01z"/>
	<path id="XMLID_176_" class="st12" d="M502.03,265.04c0-0.11,0.01-0.22,0-0.33v-6.77h-4.4c-0.3-0.21-0.6-0.41-0.94-0.61
		L315.67,152.81c-7.93-4.58-21.79-4.01-30.94,1.28L53.52,288.51c-1.64,0.95-3.01,1.98-4.12,3.07h-3.45v15.73
		c0.07,2.84,1.83,5.54,5.34,7.57l181.02,104.51c7.93,4.58,21.78,4.01,30.94-1.28l231.21-134.41c4.84-2.79,7.37-6.34,7.54-9.75
		l0.02-4.24V265.04z"/>
	<path id="XMLID_175_" class="st13" d="M502.01,273.88l0.02-4.24v-4.66c0-0.11,0.01-0.22,0-0.33v-6.77h-4.4
		c-0.3-0.21-0.6-0.41-0.94-0.61l-67.15-38.77c-5.11,0.12-8.82,0.41-10.38,0.92c-9.55,3.17-163.44,92.64-166.55,106.22
		c-3.11,13.58-8.87,81.59-8.87,81.59v15.11c6.65,0.37,13.94-1.08,19.51-4.29l231.21-134.41
		C499.31,280.84,501.85,277.29,502.01,273.88z"/>
	<path id="XMLID_172_" class="st6" d="M245.76,424.04c-5.33,0-10.42-1.08-14.23-3.27L50.5,316.26c-3.87-2.23-6.05-5.4-6.14-8.91
		v-17.36h4.41c1.14-1.03,2.46-1.99,3.95-2.86l231.21-134.41c9.58-5.53,24.17-6.11,32.54-1.28l181.02,104.51
		c0.22,0.12,0.42,0.26,0.63,0.39h5.5l-0.02,17.61c-0.2,4.21-3.16,8.13-8.34,11.12L264.06,419.49
		C258.84,422.5,252.13,424.04,245.76,424.04z M47.55,293.17v14.13c0.06,2.35,1.64,4.51,4.55,6.19L233.12,418
		c7.48,4.33,20.65,3.75,29.35-1.28l231.21-134.41c4.14-2.39,6.6-5.47,6.75-8.45l0.02-8.98l0-5.36h-3.28l-0.4-0.27
		c-0.43-0.29-0.63-0.42-0.84-0.54L314.88,154.2c-7.48-4.32-20.64-3.75-29.35,1.28L54.32,289.89c-1.48,0.85-2.76,1.8-3.8,2.82
		l-0.46,0.46H47.55z"/>
	<path id="XMLID_170_" class="st12" d="M232.32,404.19L51.3,299.68c-7.93-4.58-6.94-12.58,2.22-17.87l231.21-134.41
		c9.16-5.29,23.01-5.86,30.94-1.28l181.02,104.51c7.93,4.58,6.94,12.58-2.22,17.87L263.26,402.91
		C254.11,408.2,240.25,408.77,232.32,404.19z"/>
	<path id="XMLID_167_" class="st6" d="M245.76,408.85c-5.33,0-10.43-1.08-14.24-3.27L50.5,301.06c-3.97-2.29-6.15-5.54-6.15-9.14
		c0-4.23,3.05-8.41,8.37-11.49l231.21-134.41c9.59-5.52,24.18-6.1,32.54-1.28l181.02,104.51c3.97,2.29,6.15,5.54,6.15,9.14
		c0,4.23-3.05,8.42-8.37,11.49L264.06,404.3C258.84,407.31,252.13,408.85,245.76,408.85z M302.24,144.61
		c-5.8,0-11.92,1.42-16.71,4.18L54.32,283.2c-4.31,2.48-6.78,5.66-6.78,8.72c0,2.42,1.62,4.68,4.56,6.38l181.02,104.51
		c7.48,4.33,20.65,3.74,29.35-1.28l231.21-134.41c4.31-2.49,6.78-5.67,6.78-8.72c0-2.42-1.62-4.68-4.56-6.38L314.88,147.5
		C311.51,145.56,306.99,144.61,302.24,144.61z"/>
	<path id="XMLID_164_" class="st11" d="M249.59,394.03l-0.77-0.44L74.26,292.81L294.21,164.9l0.77,0.44l174.55,100.78L249.59,394.03
		z"/>
	<polygon id="XMLID_162_" class="st6" points="250.53,383.87 72.88,281.31 297.17,150.89 474.82,253.45 	"/>
	<path id="XMLID_159_" class="st12" d="M250.53,385.71l-0.8-0.46L69.69,281.31l227.49-132.26l0.8,0.46l180.04,103.95L250.53,385.71z
		 M76.07,281.31l174.46,100.73l221.11-128.58L297.17,152.73L76.07,281.31z"/>
	<g id="XMLID_153_">
		<path id="XMLID_157_" class="st11" d="M446.54,193.74l-0.08,0.7l-18.09-10.44c-0.31,0.23-0.6,0.47-0.97,0.68
			c-5.1,2.95-8.07,7.65-13.18,4.71c-5.1-2.95-10.41-3.93-5.3-6.87c0.37-0.21,0.78-0.38,1.18-0.56l1.66-13.63l-7.04-2.44l-1.09,12.34
			l-19.99-20.04c-3.51-2.03-9.51-1.05-10.66,1.74l-2.55,6.2l-2.33-0.23v14.86c0,0.05,0,0.1,0,0.15v0.05l0.01,0
			c0.08,0.89,0.71,1.75,1.83,2.4l54.99,31.75c1.53,0.89,3.75,1.26,5.86,0.99l20.13-2.58c3.24-0.42,5.09-2.09,4.95-3.77v-14.62
			L446.54,193.74z"/>
		<path id="XMLID_154_" class="st11" d="M429.43,217.75c-1.95,0-3.85-0.45-5.29-1.29l-54.98-31.74c-0.77-0.45-1.39-0.99-1.84-1.6
			l-0.79,0.39l-0.01-19.39l2.9,0.29l2.1-5.1c0.58-1.41,1.96-2.55,3.88-3.21c2.96-1,6.59-0.73,9.05,0.69l0.33,0.26l17.57,17.62
			l0.95-10.82l10.27,3.64v16.86l-2.81-0.95c-0.59,0.26-0.83,0.36-1.04,0.49c-0.57,0.32-0.9,0.57-1.09,0.74
			c0.58,0.44,1.89,1.08,2.89,1.57c1.09,0.53,2.3,1.12,3.49,1.81c2.72,1.57,4.42,0.44,7.71-2.04c1.14-0.86,2.42-1.83,3.87-2.66
			c0.21-0.12,0.39-0.26,0.57-0.39l0.84-0.64l1.15,0.35l16.18,9.34l11.16,1.62c0.56,0.08,0.97,0.56,0.97,1.13v15.02
			c0.22,2.59-2.38,4.84-6.34,5.35L431,217.65C430.48,217.72,429.95,217.75,429.43,217.75z M369.7,180.74l0,0.05
			c0.04,0.38,0.42,0.81,1.04,1.17l54.99,31.74c1.23,0.71,3.1,1.01,4.86,0.79l20.13-2.58c2.42-0.31,3.62-1.39,3.57-2.06l0-13.38
			l-6.35-0.92l-0.17,1.49l-19.3-11.15c-0.09,0.06-0.17,0.11-0.26,0.17c-1.29,0.74-2.44,1.61-3.55,2.45
			c-3.23,2.43-6.57,4.95-11.23,2.26c-1.12-0.65-2.26-1.2-3.29-1.7c-2.69-1.3-4.82-2.34-4.89-4.32c-0.06-1.7,1.5-2.83,2.87-3.62
			c0.12-0.07,2.13,1.25,2.26,1.18v-12.38l-4.24-2.01l-1.22,13.85l-22.24-22.31c-1.67-0.88-4.27-1.01-6.26-0.34
			c-1.01,0.34-1.74,0.87-1.96,1.4l-3,7.3l-1.75-0.18L369.7,180.74z"/>
	</g>
	<path id="XMLID_152_" class="st6" d="M454.04,192.7l-25.67-14.82c-0.31,0.23-0.6,0.47-0.97,0.68c-5.1,2.95-13.38,2.95-18.48,0
		c-5.1-2.95-5.1-7.72,0-10.67c0.37-0.21,0.78-0.38,1.18-0.56l-26.46-15.28c-3.51-2.03-9.51-1.05-10.66,1.74l-4.72,11.48
		c-0.51,1.24,0.13,2.54,1.69,3.44l54.99,31.75c1.53,0.89,3.75,1.26,5.86,0.99l20.13-2.58C455.82,198.24,457.58,194.74,454.04,192.7z
		"/>
	<path id="XMLID_149_" class="st12" d="M429.43,203.13c-1.95,0-3.85-0.45-5.29-1.29l-54.98-31.74c-2.26-1.31-3.18-3.44-2.36-5.43
		l4.72-11.48c0.58-1.41,1.96-2.55,3.88-3.2c2.96-1,6.59-0.73,9.05,0.68l29.13,16.82l-2.81,1.29c-0.59,0.26-0.83,0.36-1.04,0.49
		c-1.96,1.13-3.04,2.53-3.04,3.95c0,1.42,1.07,2.83,3.03,3.96c4.58,2.64,12.32,2.64,16.89,0c0.21-0.12,0.39-0.26,0.57-0.39
		l0.84-0.64l1.15,0.35l25.67,14.83c1.98,1.14,2.95,2.9,2.59,4.7c-0.46,2.3-2.87,3.99-6.29,4.43L431,203.03
		C430.48,203.1,429.95,203.13,429.43,203.13z M379.16,152.58c-0.95,0-1.9,0.14-2.74,0.43c-1.01,0.34-1.74,0.87-1.96,1.4l-4.72,11.48
		c-0.27,0.65,0.71,1.27,1.01,1.45l54.99,31.74c1.23,0.71,3.1,1.01,4.86,0.79l20.13-2.58c2.39-0.31,3.46-1.32,3.57-1.9
		c0.12-0.58-0.78-1.15-1.05-1.31l-24.77-14.3c-0.09,0.06-0.17,0.11-0.26,0.17c-5.64,3.25-14.46,3.24-20.09,0
		c-2.98-1.72-4.62-4.11-4.62-6.72c0-2.22,1.2-4.28,3.39-5.91l-24.04-13.87C381.87,152.87,380.52,152.58,379.16,152.58z"/>
	<path id="XMLID_146_" class="st6" d="M457.1,243.76l-142.34-82.18c-3.42-1.97-2.99-5.42,0.96-7.7l8.81-5.08
		c3.95-2.28,9.92-2.53,13.34-0.55l142.34,82.18c3.42,1.97,2.99,5.42-0.96,7.7l-8.8,5.08C466.5,245.48,460.52,245.73,457.1,243.76z"
		/>
	<path id="XMLID_143_" class="st12" d="M462.91,246.69c-2.45,0-4.81-0.51-6.61-1.55l-142.34-82.18c-2-1.16-3.11-2.84-3.11-4.73
		c0-2.16,1.48-4.25,4.06-5.74l8.81-5.09c4.46-2.57,11.02-2.82,14.94-0.55l142.34,82.18c2,1.16,3.11,2.84,3.11,4.73
		c0,2.16-1.48,4.25-4.06,5.74l-8.81,5.09C468.83,245.98,465.8,246.69,462.91,246.69z M457.9,242.37c2.93,1.69,8.31,1.44,11.75-0.55
		l8.81-5.09c1.54-0.89,2.47-2,2.47-2.98c0-0.9-0.82-1.57-1.51-1.97l-142.34-82.17c-2.92-1.69-8.31-1.44-11.75,0.55l-8.81,5.08
		c-1.54,0.89-2.47,2-2.47,2.98c0,0.9,0.82,1.56,1.51,1.96L457.9,242.37z"/>
	<path id="XMLID_141_" class="st14" d="M412.51,224.81l-71.17-41.09c-1.71-0.99-1.5-2.71,0.48-3.85l4.4-2.54
		c1.97-1.14,4.96-1.26,6.67-0.28l71.17,41.09c1.71,0.99,1.5,2.71-0.48,3.85l-4.4,2.54C417.21,225.68,414.22,225.8,412.51,224.81z"/>
	<path id="XMLID_138_" class="st12" d="M415.43,227.08c-1.37,0-2.68-0.29-3.71-0.88l-71.17-41.09c-1.24-0.72-1.96-1.83-1.95-3.06
		c0-1.37,0.88-2.67,2.43-3.56l4.4-2.54c2.5-1.44,6.04-1.56,8.27-0.28l71.17,41.09c1.24,0.72,1.95,1.83,1.95,3.06
		c0,1.37-0.88,2.66-2.43,3.56l-4.41,2.54C418.64,226.69,417,227.08,415.43,227.08z M350.02,177.97c-1.04,0-2.16,0.25-3,0.74
		l-4.4,2.54c-0.67,0.38-0.83,0.73-0.83,0.8c0.01,0.02,0.1,0.14,0.36,0.29l71.17,41.09c1.23,0.72,3.6,0.58,5.08-0.27l4.41-2.54
		c0.66-0.38,0.83-0.73,0.83-0.8c-0.01-0.02-0.1-0.14-0.36-0.29l-71.17-41.09C351.57,178.12,350.81,177.97,350.02,177.97z"/>
	<path id="XMLID_135_" class="st15" d="M253.32,371.33c1.24,0.71,1.24,1.87,0,2.59c-1.24,0.71-3.25,0.71-4.48,0
		c-1.24-0.72-1.24-1.87,0-2.59C250.08,370.61,252.08,370.61,253.32,371.33z"/>
	<path id="XMLID_134_" class="st15" d="M265.05,364.56c1.24,0.71,1.24,1.87,0,2.59c-1.24,0.71-3.25,0.71-4.48,0
		c-1.24-0.71-1.24-1.87,0-2.59C261.8,363.84,263.81,363.84,265.05,364.56z"/>
	<path id="XMLID_133_" class="st15" d="M276.77,357.79c1.24,0.71,1.24,1.87,0,2.59c-1.24,0.71-3.25,0.71-4.48,0
		c-1.24-0.71-1.24-1.87,0-2.59C273.53,357.08,275.53,357.08,276.77,357.79z"/>
	<path id="XMLID_132_" class="st15" d="M288.5,351.02c1.24,0.72,1.24,1.87,0,2.59c-1.24,0.71-3.25,0.71-4.48,0
		c-1.24-0.71-1.24-1.87,0-2.59C285.25,350.31,287.26,350.31,288.5,351.02z"/>
	<path id="XMLID_131_" class="st15" d="M300.22,344.26c1.24,0.71,1.24,1.87,0,2.59c-1.24,0.71-3.25,0.71-4.48,0
		c-1.24-0.71-1.24-1.87,0-2.59C296.98,343.54,298.98,343.54,300.22,344.26z"/>
	<ellipse id="XMLID_130_" class="st15" cx="309.7" cy="338.78" rx="3.17" ry="1.83"/>
	<path id="XMLID_129_" class="st15" d="M323.67,330.72c1.24,0.71,1.24,1.87,0,2.59c-1.24,0.71-3.25,0.71-4.48,0
		c-1.24-0.71-1.24-1.87,0-2.59C320.42,330.01,322.43,330.01,323.67,330.72z"/>
	<path id="XMLID_128_" class="st15" d="M335.4,323.96c1.24,0.71,1.24,1.87,0,2.59c-1.24,0.71-3.25,0.71-4.48,0
		c-1.24-0.72-1.24-1.87,0-2.59C332.15,323.24,334.16,323.24,335.4,323.96z"/>
	<path id="XMLID_127_" class="st15" d="M347.12,317.19c1.24,0.71,1.24,1.87,0,2.59c-1.24,0.71-3.25,0.71-4.48,0
		c-1.24-0.71-1.24-1.87,0-2.59C343.87,316.47,345.88,316.47,347.12,317.19z"/>
	<path id="XMLID_126_" class="st15" d="M358.85,310.42c1.24,0.71,1.24,1.87,0,2.59c-1.24,0.71-3.25,0.71-4.48,0
		c-1.24-0.71-1.24-1.87,0-2.59C355.6,309.71,357.61,309.71,358.85,310.42z"/>
	<path id="XMLID_125_" class="st15" d="M370.57,303.65c1.24,0.71,1.24,1.87,0,2.59c-1.24,0.71-3.25,0.71-4.48,0
		c-1.24-0.71-1.24-1.87,0-2.59C367.32,302.94,369.33,302.94,370.57,303.65z"/>
	<path id="XMLID_124_" class="st15" d="M382.3,296.89c1.24,0.71,1.24,1.87,0,2.59c-1.24,0.71-3.25,0.71-4.48,0
		c-1.24-0.71-1.24-1.87,0-2.59C379.05,296.17,381.06,296.17,382.3,296.89z"/>
	<path id="XMLID_123_" class="st15" d="M394.02,290.12c1.24,0.71,1.24,1.87,0,2.59c-1.24,0.71-3.25,0.71-4.48,0
		c-1.24-0.71-1.24-1.87,0-2.59C390.77,289.4,392.78,289.4,394.02,290.12z"/>
	<ellipse id="XMLID_122_" class="st15" cx="403.5" cy="284.65" rx="3.17" ry="1.83"/>
	<path id="XMLID_121_" class="st15" d="M417.47,276.58c1.24,0.71,1.24,1.87,0,2.59c-1.24,0.71-3.25,0.71-4.48,0
		c-1.24-0.71-1.24-1.87,0-2.59C414.22,275.87,416.23,275.87,417.47,276.58z"/>
	<path id="XMLID_120_" class="st15" d="M429.19,269.82c1.24,0.71,1.24,1.87,0,2.59c-1.24,0.71-3.25,0.71-4.48,0
		c-1.24-0.71-1.24-1.87,0-2.59C425.95,269.1,427.96,269.1,429.19,269.82z"/>
	<path id="XMLID_119_" class="st15" d="M241.6,364.56c1.24,0.71,1.24,1.87,0,2.59c-1.24,0.72-3.25,0.72-4.48,0
		c-1.24-0.71-1.24-1.87,0-2.59C238.35,363.84,240.36,363.84,241.6,364.56z"/>
	<ellipse id="XMLID_118_" class="st15" cx="251.08" cy="359.09" rx="3.17" ry="1.83"/>
	<path id="XMLID_117_" class="st15" d="M265.05,351.02c1.24,0.72,1.24,1.87,0,2.59c-1.24,0.71-3.25,0.71-4.48,0
		c-1.24-0.71-1.24-1.87,0-2.59C261.8,350.31,263.81,350.31,265.05,351.02z"/>
	<path id="XMLID_116_" class="st15" d="M276.77,344.26c1.24,0.71,1.24,1.87,0,2.59c-1.24,0.71-3.25,0.71-4.48,0
		c-1.24-0.71-1.24-1.87,0-2.59C273.53,343.54,275.53,343.54,276.77,344.26z"/>
	<ellipse id="XMLID_115_" class="st15" cx="286.25" cy="338.78" rx="3.17" ry="1.83"/>
	<path id="XMLID_114_" class="st15" d="M300.22,330.72c1.24,0.71,1.24,1.87,0,2.59c-1.24,0.71-3.25,0.71-4.48,0
		c-1.24-0.71-1.24-1.87,0-2.59C296.98,330.01,298.98,330.01,300.22,330.72z"/>
	<path id="XMLID_113_" class="st15" d="M311.95,323.96c1.24,0.71,1.24,1.87,0,2.59c-1.24,0.71-3.25,0.71-4.48,0
		c-1.24-0.72-1.24-1.87,0-2.59C308.7,323.24,310.71,323.24,311.95,323.96z"/>
	<path id="XMLID_112_" class="st15" d="M323.67,317.19c1.24,0.71,1.24,1.87,0,2.59c-1.24,0.72-3.25,0.72-4.48,0
		c-1.24-0.71-1.24-1.87,0-2.59C320.42,316.47,322.43,316.47,323.67,317.19z"/>
	<path id="XMLID_111_" class="st15" d="M335.4,310.42c1.24,0.71,1.24,1.87,0,2.59c-1.24,0.71-3.25,0.71-4.48,0
		c-1.24-0.71-1.24-1.87,0-2.59C332.15,309.71,334.16,309.71,335.4,310.42z"/>
	<ellipse id="XMLID_110_" class="st15" cx="344.88" cy="304.95" rx="3.17" ry="1.83"/>
	<path id="XMLID_109_" class="st15" d="M358.85,296.89c1.24,0.71,1.24,1.87,0,2.59c-1.24,0.71-3.25,0.71-4.48,0
		c-1.24-0.71-1.24-1.87,0-2.59C355.6,296.17,357.61,296.17,358.85,296.89z"/>
	<ellipse id="XMLID_108_" class="st15" cx="368.33" cy="291.41" rx="3.17" ry="1.83"/>
	<ellipse id="XMLID_107_" class="st15" cx="380.05" cy="284.65" rx="3.17" ry="1.83"/>
	<path id="XMLID_106_" class="st15" d="M394.02,276.58c1.24,0.71,1.24,1.87,0,2.59c-1.24,0.71-3.25,0.71-4.48,0
		c-1.24-0.71-1.24-1.87,0-2.59C390.77,275.87,392.78,275.87,394.02,276.58z"/>
	<path id="XMLID_105_" class="st15" d="M405.75,269.82c1.24,0.71,1.24,1.87,0,2.59c-1.24,0.71-3.25,0.71-4.48,0
		c-1.24-0.71-1.24-1.87,0-2.59C402.5,269.1,404.51,269.1,405.75,269.82z"/>
	<path id="XMLID_104_" class="st15" d="M417.47,263.05c1.24,0.71,1.24,1.87,0,2.59c-1.24,0.72-3.25,0.72-4.48,0
		c-1.24-0.71-1.24-1.87,0-2.59C414.22,262.34,416.23,262.34,417.47,263.05z"/>
	<path id="XMLID_103_" class="st15" d="M229.87,357.79c1.24,0.71,1.24,1.87,0,2.59c-1.24,0.71-3.25,0.71-4.48,0
		c-1.24-0.72-1.24-1.87,0-2.59C226.63,357.08,228.63,357.08,229.87,357.79z"/>
	<path id="XMLID_102_" class="st15" d="M241.6,351.02c1.24,0.72,1.24,1.87,0,2.59c-1.24,0.71-3.25,0.71-4.48,0
		c-1.24-0.71-1.24-1.87,0-2.59C238.35,350.31,240.36,350.31,241.6,351.02z"/>
	<path id="XMLID_101_" class="st15" d="M253.32,344.26c1.24,0.71,1.24,1.87,0,2.59c-1.24,0.71-3.25,0.71-4.48,0
		c-1.24-0.71-1.24-1.87,0-2.59C250.08,343.54,252.08,343.54,253.32,344.26z"/>
	<path id="XMLID_100_" class="st15" d="M265.05,337.49c1.24,0.71,1.24,1.87,0,2.59c-1.24,0.71-3.25,0.71-4.48,0
		c-1.24-0.71-1.24-1.87,0-2.59C261.8,336.78,263.81,336.78,265.05,337.49z"/>
	<path id="XMLID_99_" class="st15" d="M276.77,330.72c1.24,0.71,1.24,1.87,0,2.59c-1.24,0.71-3.25,0.71-4.48,0
		c-1.24-0.71-1.24-1.87,0-2.59C273.53,330.01,275.53,330.01,276.77,330.72z"/>
	<path id="XMLID_98_" class="st15" d="M288.5,323.96c1.24,0.71,1.24,1.87,0,2.59c-1.24,0.71-3.25,0.71-4.48,0
		c-1.24-0.72-1.24-1.87,0-2.59C285.25,323.24,287.26,323.24,288.5,323.96z"/>
	<ellipse id="XMLID_97_" class="st15" cx="297.98" cy="318.48" rx="3.17" ry="1.83"/>
	<path id="XMLID_96_" class="st15" d="M311.95,310.42c1.24,0.71,1.24,1.87,0,2.59c-1.24,0.71-3.25,0.71-4.48,0
		c-1.24-0.71-1.24-1.87,0-2.59C308.7,309.71,310.71,309.71,311.95,310.42z"/>
	<ellipse id="XMLID_95_" class="st15" cx="321.43" cy="304.95" rx="3.17" ry="1.83"/>
	<path id="XMLID_94_" class="st15" d="M335.4,296.89c1.24,0.71,1.24,1.87,0,2.59c-1.24,0.71-3.25,0.71-4.48,0
		c-1.24-0.71-1.24-1.87,0-2.59C332.15,296.17,334.16,296.17,335.4,296.89z"/>
	<path id="XMLID_93_" class="st15" d="M347.12,290.12c1.24,0.71,1.24,1.87,0,2.59c-1.24,0.71-3.25,0.71-4.48,0
		c-1.24-0.71-1.24-1.87,0-2.59C343.87,289.41,345.88,289.41,347.12,290.12z"/>
	<path id="XMLID_92_" class="st15" d="M358.85,283.35c1.24,0.71,1.24,1.87,0,2.59c-1.24,0.71-3.25,0.71-4.48,0
		c-1.24-0.71-1.24-1.87,0-2.59C355.6,282.64,357.61,282.64,358.85,283.35z"/>
	<path id="XMLID_91_" class="st15" d="M370.57,276.59c1.24,0.71,1.24,1.87,0,2.59c-1.24,0.71-3.25,0.71-4.48,0
		c-1.24-0.71-1.24-1.87,0-2.59C367.33,275.87,369.33,275.87,370.57,276.59z"/>
	<path id="XMLID_90_" class="st15" d="M382.3,269.82c1.24,0.71,1.24,1.87,0,2.59c-1.24,0.71-3.25,0.71-4.48,0
		c-1.24-0.71-1.24-1.87,0-2.59C379.05,269.1,381.06,269.1,382.3,269.82z"/>
	<path id="XMLID_89_" class="st15" d="M394.02,263.05c1.24,0.71,1.24,1.87,0,2.59c-1.24,0.72-3.25,0.72-4.48,0
		c-1.24-0.71-1.24-1.87,0-2.59C390.77,262.34,392.78,262.34,394.02,263.05z"/>
	<path id="XMLID_88_" class="st15" d="M405.75,256.28c1.24,0.71,1.24,1.87,0,2.59c-1.24,0.71-3.25,0.71-4.48,0
		c-1.24-0.71-1.24-1.87,0-2.59C402.5,255.57,404.51,255.57,405.75,256.28z"/>
	<path id="XMLID_87_" class="st15" d="M436.46,263.15c1.24-0.72,3.24-0.72,4.48-0.01c1.24,0.71,1.24,1.87,0.01,2.59
		c-1.24,0.72-3.24,0.72-4.48,0C435.22,265.02,435.22,263.86,436.46,263.15z"/>
	<path id="XMLID_86_" class="st15" d="M452.68,256.37c1.24,0.71,1.24,1.87,0,2.59c-1.24,0.71-3.25,0.71-4.48,0
		c-1.24-0.71-1.24-1.87,0-2.59C449.44,255.66,451.44,255.66,452.68,256.37z"/>
	<path id="XMLID_85_" class="st15" d="M424.73,256.38c1.24-0.72,3.24-0.72,4.48,0c1.24,0.71,1.24,1.87,0.01,2.59
		c-1.24,0.72-3.24,0.72-4.48,0C423.5,258.25,423.5,257.1,424.73,256.38z"/>
	<ellipse id="XMLID_84_" class="st15" cx="438.71" cy="250.9" rx="3.17" ry="1.83"/>
	<path id="XMLID_83_" class="st15" d="M413.01,249.61c1.24-0.72,3.24-0.72,4.48-0.01c1.24,0.71,1.24,1.87,0.01,2.59
		c-1.24,0.72-3.24,0.72-4.48,0C411.78,251.49,411.77,250.33,413.01,249.61z"/>
	<path id="XMLID_82_" class="st15" d="M429.23,242.84c1.24,0.71,1.24,1.87,0,2.59c-1.24,0.72-3.25,0.72-4.48,0
		c-1.24-0.71-1.24-1.87,0-2.59C425.99,242.12,427.99,242.12,429.23,242.84z"/>
	<g id="XMLID_61_">
		<path id="XMLID_80_" class="st15" d="M94.54,279.32c1.24,0.71,1.24,1.87,0,2.59c-1.24,0.71-3.25,0.71-4.48,0
			c-1.24-0.71-1.24-1.87,0-2.59C91.29,278.61,93.3,278.61,94.54,279.32z"/>
		<ellipse id="XMLID_79_" class="st15" cx="104.02" cy="273.85" rx="3.17" ry="1.83"/>
		<ellipse id="XMLID_77_" class="st15" cx="115.75" cy="267.08" rx="3.17" ry="1.83"/>
		<ellipse id="XMLID_76_" class="st15" cx="127.47" cy="260.32" rx="3.17" ry="1.83"/>
		<path id="XMLID_75_" class="st15" d="M141.44,252.25c1.24,0.71,1.24,1.87,0,2.59c-1.24,0.71-3.25,0.71-4.48,0s-1.24-1.87,0-2.59
			C138.19,251.54,140.2,251.54,141.44,252.25z"/>
		<path id="XMLID_74_" class="st15" d="M153.16,245.49c1.24,0.71,1.24,1.87,0,2.59c-1.24,0.71-3.25,0.71-4.48,0
			c-1.24-0.71-1.24-1.87,0-2.59C149.92,244.77,151.92,244.77,153.16,245.49z"/>
		<path id="XMLID_73_" class="st15" d="M164.89,238.72c1.24,0.72,1.24,1.87,0,2.59c-1.24,0.71-3.25,0.71-4.48,0
			c-1.24-0.71-1.24-1.87,0-2.59C161.64,238,163.65,238,164.89,238.72z"/>
		<ellipse id="XMLID_72_" class="st15" cx="174.37" cy="233.25" rx="3.17" ry="1.83"/>
		<path id="XMLID_71_" class="st15" d="M188.34,225.19c1.24,0.71,1.24,1.87,0,2.59c-1.24,0.71-3.25,0.71-4.48,0
			c-1.24-0.71-1.24-1.87,0-2.59C185.09,224.47,187.1,224.47,188.34,225.19z"/>
		<path id="XMLID_70_" class="st15" d="M200.06,218.42c1.24,0.71,1.24,1.87,0,2.59c-1.24,0.72-3.25,0.72-4.48,0
			c-1.24-0.71-1.24-1.87,0-2.59C196.82,217.7,198.82,217.7,200.06,218.42z"/>
		<path id="XMLID_69_" class="st15" d="M211.79,211.65c1.24,0.71,1.24,1.87,0,2.59c-1.24,0.71-3.25,0.71-4.48,0
			c-1.24-0.72-1.24-1.87,0-2.59C208.54,210.94,210.55,210.94,211.79,211.65z"/>
		<path id="XMLID_68_" class="st15" d="M223.51,204.88c1.24,0.71,1.24,1.87,0,2.59c-1.24,0.71-3.25,0.71-4.48,0
			c-1.24-0.71-1.24-1.87,0-2.59C220.27,204.17,222.27,204.17,223.51,204.88z"/>
		<path id="XMLID_67_" class="st15" d="M235.24,198.12c1.24,0.71,1.24,1.87,0,2.59c-1.24,0.71-3.25,0.71-4.48,0
			c-1.24-0.71-1.24-1.87,0-2.59C231.99,197.4,234,197.4,235.24,198.12z"/>
		<path id="XMLID_66_" class="st15" d="M246.96,191.35c1.24,0.72,1.24,1.87,0,2.59c-1.24,0.71-3.25,0.71-4.48,0
			c-1.24-0.71-1.24-1.87,0-2.59C243.72,190.63,245.72,190.63,246.96,191.35z"/>
		<path id="XMLID_65_" class="st15" d="M258.69,184.58c1.24,0.71,1.24,1.87,0,2.59c-1.24,0.71-3.25,0.71-4.48,0
			c-1.24-0.71-1.24-1.87,0-2.59C255.44,183.87,257.45,183.87,258.69,184.58z"/>
		<path id="XMLID_64_" class="st15" d="M270.41,177.81c1.24,0.71,1.24,1.87,0,2.59c-1.24,0.71-3.25,0.71-4.48,0
			c-1.24-0.71-1.24-1.87,0-2.59C267.17,177.1,269.17,177.1,270.41,177.81z"/>
		<path id="XMLID_63_" class="st15" d="M277.67,171.14c1.24-0.72,3.24-0.72,4.48,0c1.24,0.71,1.24,1.87,0.01,2.59
			c-1.24,0.72-3.24,0.72-4.48,0C276.44,173.02,276.44,171.86,277.67,171.14z"/>
		<path id="XMLID_62_" class="st15" d="M293.9,164.37c1.24,0.71,1.24,1.87,0,2.59c-1.24,0.71-3.25,0.71-4.48,0
			c-1.24-0.71-1.24-1.87,0-2.59C290.65,163.65,292.66,163.65,293.9,164.37z"/>
	</g>
	<g id="XMLID_42_">
		<ellipse id="XMLID_60_" class="st15" cx="103.96" cy="287.39" rx="3.17" ry="1.83"/>
		<path id="XMLID_59_" class="st15" d="M117.93,279.33c1.24,0.71,1.24,1.87,0,2.59c-1.24,0.71-3.25,0.71-4.48,0
			c-1.24-0.71-1.24-1.87,0-2.59C114.68,278.61,116.69,278.61,117.93,279.33z"/>
		<ellipse id="XMLID_58_" class="st15" cx="127.41" cy="273.86" rx="3.17" ry="1.83"/>
		<path id="XMLID_57_" class="st15" d="M141.38,265.79c1.24,0.71,1.24,1.87,0,2.59c-1.24,0.71-3.25,0.71-4.48,0
			c-1.24-0.72-1.24-1.87,0-2.59C138.13,265.08,140.14,265.08,141.38,265.79z"/>
		<path id="XMLID_56_" class="st15" d="M153.1,259.03c1.24,0.71,1.24,1.87,0,2.59c-1.24,0.71-3.25,0.71-4.48,0
			c-1.24-0.71-1.24-1.87,0-2.59C149.86,258.31,151.86,258.31,153.1,259.03z"/>
		<path id="XMLID_55_" class="st15" d="M164.83,252.26c1.24,0.71,1.24,1.87,0,2.59c-1.24,0.71-3.25,0.71-4.48,0
			c-1.24-0.71-1.24-1.87,0-2.59C161.58,251.55,163.59,251.55,164.83,252.26z"/>
		<path id="XMLID_54_" class="st15" d="M176.55,245.49c1.24,0.71,1.24,1.87,0,2.59c-1.24,0.71-3.25,0.71-4.48,0
			c-1.24-0.71-1.24-1.87,0-2.59C173.31,244.78,175.31,244.78,176.55,245.49z"/>
		<path id="XMLID_53_" class="st15" d="M188.28,238.73c1.24,0.71,1.24,1.87,0,2.59c-1.24,0.71-3.25,0.71-4.48,0
			c-1.24-0.71-1.24-1.87,0-2.59C185.03,238.01,187.04,238.01,188.28,238.73z"/>
		<ellipse id="XMLID_52_" class="st15" cx="197.76" cy="233.25" rx="3.17" ry="1.83"/>
		<path id="XMLID_51_" class="st15" d="M211.73,225.19c1.24,0.71,1.24,1.87,0,2.59c-1.24,0.71-3.25,0.71-4.48,0
			c-1.24-0.71-1.24-1.87,0-2.59C208.48,224.48,210.49,224.48,211.73,225.19z"/>
		<path id="XMLID_50_" class="st15" d="M223.45,218.42c1.24,0.71,1.24,1.87,0,2.59c-1.24,0.71-3.25,0.71-4.48,0
			c-1.24-0.71-1.24-1.87,0-2.59C220.21,217.71,222.21,217.71,223.45,218.42z"/>
		<path id="XMLID_49_" class="st15" d="M235.18,211.66c1.24,0.71,1.24,1.87,0,2.59c-1.24,0.71-3.25,0.71-4.48,0
			c-1.24-0.71-1.24-1.87,0-2.59C231.93,210.94,233.94,210.94,235.18,211.66z"/>
		<path id="XMLID_48_" class="st15" d="M246.9,204.89c1.24,0.71,1.24,1.87,0,2.59c-1.24,0.72-3.25,0.72-4.48,0
			c-1.24-0.71-1.24-1.87,0-2.59C243.66,204.18,245.66,204.18,246.9,204.89z"/>
		<ellipse id="XMLID_47_" class="st15" cx="256.38" cy="199.42" rx="3.17" ry="1.83"/>
		<path id="XMLID_46_" class="st15" d="M270.35,191.36c1.24,0.71,1.24,1.87,0,2.59c-1.24,0.71-3.25,0.71-4.48,0
			c-1.24-0.71-1.24-1.87,0-2.59C267.11,190.64,269.11,190.64,270.35,191.36z"/>
		<path id="XMLID_45_" class="st15" d="M282.08,184.59c1.24,0.71,1.24,1.87,0,2.59c-1.24,0.71-3.25,0.71-4.48,0
			c-1.24-0.71-1.24-1.87,0-2.59C278.83,183.87,280.84,183.87,282.08,184.59z"/>
		<path id="XMLID_44_" class="st15" d="M289.34,177.92c1.24-0.72,3.24-0.72,4.48,0c1.24,0.71,1.24,1.87,0.01,2.59
			c-1.24,0.72-3.24,0.72-4.48,0C288.11,179.79,288.1,178.63,289.34,177.92z"/>
		<path id="XMLID_43_" class="st15" d="M305.56,171.14c1.24,0.71,1.24,1.87,0,2.59c-1.24,0.71-3.25,0.71-4.48,0
			c-1.24-0.71-1.24-1.87,0-2.59C302.32,170.43,304.32,170.43,305.56,171.14z"/>
	</g>
	<path id="XMLID_39_" class="st13" d="M284.78,259.89c-5.95-3.44-15.61-3.44-21.56,0c-5.95,3.44-5.95,9.01,0,12.45
		c5.95,3.44,15.61,3.44,21.56,0C290.74,268.91,290.74,263.33,284.78,259.89z"/>
	<path id="XMLID_36_" class="st13" d="M308.26,243.99c-19.2-11.09-49.29-11.1-68.5,0c-9.92,5.72-15.38,13.58-15.38,22.12
		c0,8.54,5.46,16.41,15.38,22.13c9.6,5.55,21.93,8.32,34.25,8.32c12.32,0,24.65-2.77,34.25-8.32c9.92-5.72,15.38-13.59,15.38-22.13
		C323.64,257.57,318.17,249.72,308.26,243.99z M304.18,281.19c-16.63,9.6-43.71,9.6-60.35,0c-7.29-4.21-11.31-9.57-11.3-15.08
		c0-5.51,4.01-10.86,11.3-15.07c8.32-4.8,19.25-7.2,30.17-7.2c10.93,0,21.86,2.4,30.18,7.2c7.29,4.21,11.3,9.56,11.3,15.07
		C315.49,271.62,311.47,276.98,304.18,281.19z"/>
	<path id="XMLID_34_" class="st14" d="M284.78,251.73c-5.95-3.44-15.61-3.44-21.56,0c-5.95,3.44-5.95,9.01,0,12.45
		c5.95,3.44,15.61,3.44,21.56,0C290.74,260.74,290.74,255.16,284.78,251.73z"/>
	<path id="XMLID_31_" class="st14" d="M308.25,235.82c-19.2-11.09-49.29-11.1-68.5,0c-9.92,5.72-15.38,13.58-15.38,22.12
		c0,8.54,5.46,16.41,15.38,22.13c9.6,5.55,21.92,8.32,34.25,8.32c12.32,0,24.65-2.77,34.25-8.32c9.92-5.72,15.38-13.59,15.38-22.13
		C323.64,249.4,318.17,241.55,308.25,235.82z M304.18,273.03c-16.63,9.6-43.71,9.6-60.35,0c-7.29-4.21-11.31-9.57-11.3-15.08
		c0-5.51,4.01-10.86,11.3-15.07c8.32-4.8,19.25-7.2,30.17-7.2c10.93,0,21.86,2.4,30.18,7.2c7.29,4.21,11.3,9.56,11.3,15.07
		C315.49,263.46,311.47,268.81,304.18,273.03z"/>
	<path id="XMLID_27_" class="st13" d="M267.59,9.43c-32.17,14.82-61.01,59.71-63.74,101.19c-1.09,16.6,2.19,30.03,8.7,39.18
		l46.33,87.86l22.22,10.85c2-4.53,34.41-158.86,35.9-163.5l0,0c3.48-10.85,27.19-17.66,27.36-28.23
		C345.01,18.14,298.96-5.02,267.59,9.43z M263.52,108.45c-12.67,6.32-22.38-1.44-21.58-17.2c0.78-15.56,11.52-32.85,23.88-38.75
		c12.24-5.84,21.69,1.59,21.2,16.74C286.54,84.57,276.06,102.18,263.52,108.45z"/>
	<path id="XMLID_24_" class="st14" d="M269.6,11.34c-32.17,14.82-61.01,59.71-63.74,101.19c-0.52,7.89,0.01,14.99,1.35,21.33
		c36.7,22.07,64.2,20.78,92.86,40.34c8.92-41.48,18.16-84.85,18.94-87.28c3.48-10.85,21.25-18.98,21.43-29.54
		C341.08,18.73,300.97-3.11,269.6,11.34z M265.53,110.36c-12.67,6.32-22.37-1.43-21.58-17.2c0.78-15.56,11.52-32.85,23.88-38.75
		c12.24-5.84,21.69,1.59,21.2,16.74C288.55,86.48,278.07,104.09,265.53,110.36z"/>
	<path id="XMLID_19_" class="st6" d="M282.31,251.82l-25.22-12.32l-0.37-0.71l-46.33-87.87c-6.91-9.68-10.08-23.76-8.98-40.47
		c2.75-41.64,31.98-87.96,65.16-103.26l0,0c16.68-7.7,38.54-5.45,55.65,5.72c15.92,10.38,24.88,26.38,24.58,43.9
		c-0.12,6.82-7.44,11.83-14.51,16.67c-5.69,3.89-11.58,7.92-12.97,12.26c-0.58,1.84-6.63,30.01-13.03,59.84
		c-12.69,59.14-21.77,101.21-22.96,103.91L282.31,251.82z M260.67,235.81l18.88,9.22c2.99-12.02,13.83-62.56,21.97-100.47
		c7.76-36.14,12.54-58.39,13.16-60.3c1.9-5.94,8.49-10.45,14.86-14.81c6.05-4.14,12.31-8.42,12.39-12.71
		c0.26-15.8-7.89-30.28-22.37-39.72c-15.74-10.27-35.73-12.37-50.94-5.37l0,0c-31.73,14.62-59.69,59.09-62.33,99.13
		c-1.03,15.56,1.83,28.56,8.25,37.59L260.67,235.81z M255.11,113.09c-2.88,0-5.55-0.76-7.89-2.28c-5.37-3.5-8.18-10.68-7.73-19.68
		c0.84-16.54,11.93-34.48,25.27-40.84c6.28-2.99,12.29-2.98,16.93,0.06c5.21,3.41,8.05,10.32,7.77,18.96
		c-0.52,16.19-11.67,34.73-24.85,41.33h0C261.33,112.27,258.11,113.09,255.11,113.09z M273.77,52.96c-2.13,0-4.47,0.58-6.9,1.74
		c-11.66,5.56-21.75,22.02-22.49,36.67c-0.37,7.23,1.65,12.82,5.52,15.35c3.24,2.13,7.69,1.95,12.53-0.46
		c11.75-5.87,21.68-22.51,22.15-37.11c0.22-6.89-1.81-12.26-5.56-14.71C277.51,53.45,275.73,52.96,273.77,52.96z"/>
	<path id="XMLID_16_" class="st11" d="M344.87,63.42c0.65-38.64-23.7-57.59-55.07-43.14c-32.17,14.82-61.01,59.71-63.74,101.19
		c-1.09,16.6,2.19,30.03,8.7,39.18l46.33,87.86l52.87-138.87c2-4.53,3.76-9.14,5.25-13.79l0,0l0,0
		C342.69,85.01,344.7,73.98,344.87,63.42z"/>
	<path id="XMLID_13_" class="st6" d="M282.31,251.82l-2.98-1.43l-46.73-88.61c-6.91-9.67-10.07-23.76-8.98-40.47
		c2.75-41.64,31.98-87.96,65.16-103.26c14.86-6.84,28.98-6.73,39.77,0.31c12.45,8.12,19.11,24.14,18.76,45.09l0,0
		c-0.18,10.59-2.12,21.74-5.78,33.15c-1.51,4.71-3.31,9.43-5.34,14.02L282.31,251.82z M309.87,17.9c-5.95,0-12.39,1.53-19.04,4.59
		c-31.73,14.62-59.69,59.09-62.33,99.13c-1.02,15.57,1.83,28.57,8.25,37.6l43.98,83.36l50.95-133.82c2.01-4.55,3.75-9.12,5.21-13.66
		c3.51-10.95,5.37-21.63,5.54-31.73c0.32-18.94-5.71-33.85-16.54-40.91C321.23,19.42,315.79,17.9,309.87,17.9z"/>
	<g id="XMLID_8_">
		<path id="XMLID_9_" class="st6" d="M285.68,156.92l-23.58-16.04c-3.31-2.25-3.07-8.86,0.54-14.75l0,0c3.6-5.9,9.2-8.85,12.51-6.6
			l11.89,8.09l21.94-44.58c3.09-6.16,8.67-10.03,12.46-8.65h0c3.79,1.38,4.35,7.5,1.26,13.66l-32.87,66.35
			C288.77,156.49,286.81,157.69,285.68,156.92z"/>
	</g>
	<g id="XMLID_6_">
		<path id="XMLID_7_" class="st14" d="M282.94,149.49l-23.58-16.04c-3.31-2.25-3.07-8.86,0.54-14.75l0,0c3.6-5.9,9.2-8.85,12.51-6.6
			l11.89,8.09l21.94-44.58c3.09-6.16,8.67-10.03,12.46-8.65h0c3.79,1.38,4.35,7.5,1.26,13.66l-32.87,66.35
			C286.02,149.06,284.07,150.26,282.94,149.49z"/>
	</g>
</g>
</svg>
